<svg xmlns="http://www.w3.org/2000/svg" shape-rendering="geometricPrecision" text-rendering="geometricPrecision" image-rendering="optimizeQuality" fill-rule="evenodd" clip-rule="evenodd" viewBox="0 0 417 512.276"><path fill-rule="nonzero" d="M265.712 241.06c37.437-20.236 81.738-47.494 111.593-78.131C403.767 135.777 417 107.005 417 76.627c0-21.634-5.864-39.806-17.603-54.534C387.659 7.364 370.977 0 349.343 0c-17.487 0-36.131 5.055-55.923 15.187-19.788 10.123-40.043 27.846-60.756 53.155-9.938 12.155-64.533 106.32-64.894 106.32.921-8.743 1.495-17.024 1.722-24.851.236-7.822.343-15.187.343-22.092 0-28.999-2.981-52.128-8.971-69.384-5.985-17.26-14.844-29.688-26.582-37.279-11.734-7.6-26.578-11.396-44.528-11.396-22.551 0-39.473 6.212-50.748 18.644C27.73 40.732 19.561 59.835 14.497 85.607c-5.527 28.536-9.322 61.561-11.396 99.072C1.037 222.194 0 260.737 0 300.321c0 36.821 1.38 70.994 4.138 102.525 2.768 31.53 6.221 54.201 10.359 67.999 4.147 13.812 11.16 24.166 21.056 31.072 9.896 6.906 22.671 10.359 38.32 10.359 32.674 0 55.345-13.233 68-39.699 12.664-26.467 18.991-70.31 18.991-131.524a159.99 159.99 0 00.348-18.297 459.563 459.563 0 00-1.037-18.292c5.11 0 38.367 103.39 46.258 117.716 16.108 29.225 33.831 50.281 53.156 63.171 19.334 12.886 40.047 19.325 62.144 19.325 25.768 0 45.791-6.786 60.061-20.361 14.266-13.576 21.408-31.651 21.408-54.202 0-34.516-11.974-67.319-35.904-98.382-31.068-40.339-63.223-59.899-101.586-90.671zM53.544 271.045c.019 5.05-4.064 9.169-9.114 9.188-5.05.018-9.169-4.064-9.187-9.114l-.047-5.939c-.018-5.05 4.064-9.169 9.114-9.188 5.05-.018 9.17 4.064 9.188 9.114l.046 5.939zm.269-45.81c-.097 5.05-4.282 9.067-9.332 8.97-5.049-.097-9.067-4.281-8.97-9.331.532-25.402 2.097-53.521 5.119-80.909 2.574-23.319 6.24-46.342 11.262-67.051 1.185-4.91 6.138-7.928 11.048-6.744 4.911 1.185 7.929 6.138 6.744 11.049-4.786 19.737-8.313 42.005-10.826 64.755-2.99 27.073-4.527 54.576-5.045 79.261z"/></svg>